<svg width="1092" height="1092" viewBox="0 0 1092 1092" fill="none" xmlns="http://www.w3.org/2000/svg">
<mask id="mask0_117_3360" style="mask-type:alpha" maskUnits="userSpaceOnUse" x="0" y="0" width="1092" height="1092">
<circle cx="546" cy="546" r="546" fill="#C4C4C4"/>
</mask>
<g mask="url(#mask0_117_3360)">
<path d="M-146.132 263.963C-146.132 263.963 80.0628 222.062 138.424 75.4119C194.238 -65.1689 424.154 -102.956 424.154 -102.956" stroke="#FFAA40" stroke-width="28.6364" stroke-miterlimit="10"/>
<path d="M-146.132 334.447C-146.132 334.447 131.374 286.087 202.855 109.089C271.007 -59.8824 552.821 -102.956 552.821 -102.956" stroke="#FFAA40" stroke-width="28.6364" stroke-miterlimit="10"/>
<path d="M-146.132 405.13C-146.132 405.13 182.488 350.112 267.091 143.157C347.777 -54.7909 681.489 -102.956 681.489 -102.956" stroke="#FFAA40" stroke-width="28.6364" stroke-miterlimit="10"/>
<path d="M-146.132 475.616C-146.132 475.616 233.798 414.137 331.522 176.834C424.546 -49.5044 810.155 -102.956 810.155 -102.956" stroke="#FFAA40" stroke-width="28.6364" stroke-miterlimit="10"/>
<path d="M-146.132 546.102C-146.132 546.102 285.108 478.162 395.953 210.706C501.315 -44.2178 938.626 -102.956 938.626 -102.956" stroke="#FFAA40" stroke-width="28.6364" stroke-miterlimit="10"/>
<path d="M-146.132 616.784C-146.132 616.784 336.222 542.382 460.189 244.578C578.28 -39.1278 1067.29 -102.956 1067.29 -102.956" stroke="#FFAA40" stroke-width="28.6364" stroke-miterlimit="10"/>
<path d="M-146.132 687.27C-146.132 687.27 387.532 606.21 524.62 278.451C655.05 -33.8413 1195.96 -102.956 1195.96 -102.956" stroke="#FFAA40" stroke-width="28.6364" stroke-miterlimit="10"/>
<path d="M-146.132 757.756C-146.132 757.756 438.843 670.235 588.855 312.128C731.818 -28.5547 1324.63 -102.956 1324.63 -102.956" stroke="#FFAA40" stroke-width="28.6364" stroke-miterlimit="10"/>
<path d="M-146.132 828.439C-146.132 828.439 489.956 734.457 653.287 346.195C808.588 -23.4647 1453.1 -102.956 1453.1 -102.956" stroke="#FFAA40" stroke-width="28.6364" stroke-miterlimit="10"/>
<path d="M-146.132 898.919C-146.132 898.919 541.267 798.482 717.523 380.069C885.357 -18.1781 1581.76 -102.956 1581.76 -102.956" stroke="#FFAA40" stroke-width="28.6364" stroke-miterlimit="10"/>
<path d="M-146.132 969.601C-146.132 969.601 592.576 862.505 781.954 413.94C962.127 -12.8917 1710.43 -102.956 1710.43 -102.956" stroke="#FFAA40" stroke-width="28.6364" stroke-miterlimit="10"/>
<path d="M-146.132 1040.09C-146.132 1040.09 643.691 926.532 846.189 447.814C1038.9 -7.80016 1839.09 -102.956 1839.09 -102.956" stroke="#FFAA40" stroke-width="28.6364" stroke-miterlimit="10"/>
<path d="M-146.132 1110.57C-146.132 1110.57 695 990.557 910.621 481.489C1115.67 -2.51366 1967.76 -102.956 1967.76 -102.956" stroke="#FFAA40" stroke-width="28.6364" stroke-miterlimit="10"/>
<path d="M-146.132 1181.25C-146.132 1181.25 746.312 1054.58 975.052 515.558C1192.43 2.7729 2096.24 -102.956 2096.24 -102.956" stroke="#FFAA40" stroke-width="28.6364" stroke-miterlimit="10"/>
<path d="M-146.132 1251.75C-146.132 1251.75 797.425 1118.61 1039.29 549.235C1269.2 7.86294 2224.9 -102.956 2224.9 -102.956" stroke="#FFAA40" stroke-width="28.6364" stroke-miterlimit="10"/>
<path d="M-146.132 1322.24C-146.132 1322.24 848.736 1182.63 1103.72 583.107C1345.97 13.1495 2353.57 -102.956 2353.57 -102.956" stroke="#FFAA40" stroke-width="28.6364" stroke-miterlimit="10"/>
<path d="M-146.132 1392.92C-146.132 1392.92 900.045 1246.85 1167.95 616.98C1422.74 18.436 2482.24 -102.956 2482.24 -102.956" stroke="#FFAA40" stroke-width="28.6364" stroke-miterlimit="10"/>
<path d="M-146.132 1463.4C-146.132 1463.4 951.16 1310.68 1232.39 650.852C1499.51 23.526 2610.71 -102.956 2610.71 -102.956" stroke="#FFAA40" stroke-width="28.6364" stroke-miterlimit="10"/>
</g>
</svg>
